<svg xmlns="http://www.w3.org/2000/svg" width="2500" height="2500" viewBox="0 0 394 394"><linearGradient id="a" gradientUnits="userSpaceOnUse" x1="89.609" y1="46.855" x2="289.609" y2="304.855" gradientTransform="translate(-9)"><stop offset="0" stop-color="#33669a"/><stop offset=".448" stop-color="#337daf"/><stop offset="1" stop-color="#3299cc"/></linearGradient><g><path fill="#153333" d="M173.591 133.043"/><path d="M243.678 131.458l-3.223 1.625c7.004 4.671 16.73 9.925 26.97 11.124 15.465 1.812 32.014-4.326 36.809-6.958l-3.224-1.624-57.332-4.167z" fill="#34341e"/><path d="M179.738 124.294c5.65-2.758 16.013-6.642 29.324-5.723 9.592.66 16.824 4.534 23.722 8.9l2.922-1.507s-15.062-13.247-25.438-13.974c-20.388-1.432-33.557 10.665-33.557 10.665l3.027 1.639z" fill="#992428"/><path fill="none" stroke="#000" stroke-width="1.618" d="M174.667 130.336"/><linearGradient id="b" gradientUnits="userSpaceOnUse" x1="619.743" y1="368.277" x2="587.949" y2="359.193" gradientTransform="translate(-693.39 -477.125) scale(1.6112)"><stop offset="0" stop-color="#669a4d"/><stop offset=".416" stop-color="#67b154"/><stop offset=".567" stop-color="#97c24e"/><stop offset=".644" stop-color="#8fb84c"/><stop offset=".744" stop-color="#7ca549"/><stop offset=".857" stop-color="#618b45"/><stop offset=".978" stop-color="#406c3d"/><stop offset="1" stop-color="#39673b"/></linearGradient><path d="M268.499 141.5c15.465 1.812 28.614-3.94 32.511-5.875l15.078-52.623s-15.038 8.667-33.298 6.501c-9.992-1.187-17.421-5.276-24.269-9.881l-14.844 51.835c7.005 4.672 14.584 8.843 24.822 10.043z" fill="url(#b)"/><linearGradient id="c" gradientUnits="userSpaceOnUse" x1="545.724" y1="350.947" x2="577.168" y2="360.031" gradientTransform="translate(-693.39 -477.125) scale(1.6112)"><stop offset="0" stop-color="#d56630"/><stop offset=".152" stop-color="#d97845"/><stop offset=".416" stop-color="#df936b"/><stop offset=".612" stop-color="#d56630"/><stop offset=".698" stop-color="#cc6030"/><stop offset=".81" stop-color="#bc502d"/><stop offset=".935" stop-color="#a6362a"/><stop offset="1" stop-color="#992428"/></linearGradient><path d="M210.306 115.498c12.159 1.102 25.399 10.467 25.399 10.467l14.823-51.912c-7.301-5.055-14.846-9.602-25.204-10.551-20.354-1.866-33.834 7.582-33.834 7.582l-14.779 51.571c2.955-1.813 15.625-8.783 33.595-7.157z" fill="url(#c)"/><path fill="#97c24e" d="M255.3 81.248l-14.845 51.835 3.223-1.625 14.843-51.835z"/><path d="M316.088 83.002l-15.078 52.623c1.106.519 2.172 1.109 3.224 1.624l15.077-52.622-3.223-1.625z" fill="#34341e"/><path d="M226.536 191.835l-3.222 1.624c7.003 4.673 16.729 9.925 26.968 11.125 15.465 1.812 32.014-4.327 36.808-6.958l-3.222-1.625-57.332-4.166z" fill="#65361e"/><path d="M162.595 184.672c5.65-2.758 16.013-6.643 29.325-5.724 9.59.662 16.823 4.537 23.721 8.902l2.921-1.507s-15.061-13.247-25.435-13.974c-20.389-1.432-33.558 10.665-33.558 10.665l3.026 1.638z" fill="#313486"/><linearGradient id="d" gradientUnits="userSpaceOnUse" x1="609.041" y1="405.733" x2="577.247" y2="396.649" gradientTransform="translate(-693.39 -477.125) scale(1.6112)"><stop offset="0" stop-color="#e0942f"/><stop offset=".223" stop-color="#eac44b"/><stop offset=".416" stop-color="#f5ee69"/><stop offset=".562" stop-color="#f2c83d"/><stop offset=".635" stop-color="#e9c03c"/><stop offset=".731" stop-color="#d7ad3a"/><stop offset=".838" stop-color="#c09337"/><stop offset=".954" stop-color="#a47432"/><stop offset="1" stop-color="#986831"/></linearGradient><path d="M251.356 201.877c15.465 1.812 28.614-3.94 32.512-5.875l15.077-52.621s-15.038 8.666-33.298 6.5c-9.992-1.185-17.421-5.274-24.268-9.881l-14.844 51.836c7.004 4.671 14.583 8.842 24.821 10.041z" fill="url(#d)"/><linearGradient id="e" gradientUnits="userSpaceOnUse" x1="534.912" y1="388.372" x2="566.356" y2="397.456" gradientTransform="translate(-693.39 -477.125) scale(1.6112)"><stop offset="0" stop-color="#466ab0"/><stop offset=".254" stop-color="#4397cf"/><stop offset=".416" stop-color="#40b4e4"/><stop offset=".612" stop-color="#4f8ecc"/><stop offset=".667" stop-color="#4e8bc9"/><stop offset=".737" stop-color="#4c82c3"/><stop offset=".817" stop-color="#4874b8"/><stop offset=".903" stop-color="#4363ab"/><stop offset=".993" stop-color="#3e4b9b"/><stop offset="1" stop-color="#3e499a"/></linearGradient><path d="M193.164 175.876c12.159 1.101 25.397 10.466 25.397 10.466l14.825-51.912c-7.301-5.055-14.847-9.603-25.204-10.551-20.354-1.868-33.835 7.583-33.835 7.583l-14.779 51.572c2.955-1.814 15.626-8.784 33.596-7.158z" fill="url(#e)"/><path fill="#f5ee69" d="M238.156 141.625l-14.842 51.834 3.222-1.624 14.844-51.836z"/><path d="M298.945 143.381l-15.077 52.621c1.105.521 2.171 1.109 3.222 1.625l15.079-52.621-3.224-1.625z" fill="#65361e"/><path d="M208.815 228.258c-3.253 0-5.538 1.206-6.983 3.687-1.547 2.658-2.333 5.932-2.333 9.732 0 3.623.776 6.665 2.305 9.041 1.44 2.235 3.712 3.322 6.943 3.322 3.504 0 5.822-1.284 7.091-3.924 1.387-2.894 2.092-6.168 2.092-9.731 0-3.194-.497-5.804-1.48-7.76-1.469-2.937-3.967-4.367-7.635-4.367zM168.75 228.661c-2.668 0-4.766 1.012-6.413 3.093-1.691 2.138-2.549 5.402-2.549 9.699 0 3.674.756 6.771 2.247 9.203 1.396 2.278 3.614 3.384 6.783 3.384 2.379 0 4.292-1.038 5.849-3.175 1.622-2.225 2.444-5.529 2.444-9.821 0-4.31-.835-7.502-2.481-9.489-1.615-1.948-3.538-2.894-5.88-2.894z" fill="none"/><path fill="#fff" d="M77.266 245.222l-10.252-37.1h-8.9l-10.323 36.986-8.506-36.986h-9.801l13.554 52.259h8.906l10.618-38.044 10.611 38.044h8.921l13.65-52.259h-9.912zM98.281 221.817h8.455v38.564h-8.455zM98.281 208.021h8.455v9.462h-8.455zM133.81 220.81c-2.826.247-5.605 1.984-6.912 3.136-1.832 1.614-2.862 2.901-3.729 4.264v-6.594h-8.153v38.766h8.455v-20.22c0-2.265.145-4.01.43-5.188.263-1.087.843-2.169 1.728-3.219 1.13-1.312 2.403-2.167 3.883-2.601.84-.263 1.921-.392 3.233-.392 2.432 0 3.976.859 4.855 2.702.584 1.194.878 2.818.878 4.835v24.082h8.456v-24.52c0-3.889-.533-6.832-1.629-8.994-2.003-4.016-5.894-6.547-11.495-6.057zM177.011 227.588c-.463-1.172-1.355-2.536-1.799-3.046-2.025-2.328-4.608-3.53-7.569-3.53-5.375 0-9.573 2.133-12.479 6.339-2.81 4.064-4.234 8.923-4.234 14.44 0 5.926 1.584 10.763 4.708 14.377 3.167 3.664 6.984 5.522 11.348 5.522 2.661 0 5.414-1.243 7.294-2.999 1.261-1.177 2.438-2.774 3.134-4.274v5.963h7.852v-52.359h-8.254v19.567zm-2.344 23.277c-1.557 2.137-3.47 3.175-5.849 3.175-3.169 0-5.388-1.106-6.783-3.384-1.491-2.432-2.247-5.528-2.247-9.203 0-4.297.858-7.561 2.549-9.699 1.647-2.082 3.745-3.093 6.413-3.093 2.341 0 4.264.946 5.88 2.894 1.646 1.987 2.481 5.179 2.481 9.489 0 4.292-.822 7.597-2.444 9.821zM208.935 220.609c-5.495 0-9.944 1.968-13.225 5.85-3.229 3.822-4.866 8.986-4.866 15.352 0 5.966 1.561 10.808 4.636 14.392 3.123 3.643 7.38 5.488 12.648 5.488 6.263 0 10.977-2.093 14.012-6.22 2.952-4.01 4.447-9.132 4.447-15.22 0-6.361-1.729-11.28-5.146-14.62-3.408-3.333-7.616-5.022-12.506-5.022zm6.904 29.507c-1.269 2.64-3.587 3.924-7.091 3.924-3.231 0-5.503-1.087-6.943-3.322-1.529-2.376-2.305-5.418-2.305-9.041 0-3.8.786-7.074 2.333-9.732 1.445-2.481 3.73-3.687 6.983-3.687 3.668 0 6.166 1.429 7.635 4.367.983 1.956 1.48 4.566 1.48 7.76 0 3.563-.705 6.838-2.092 9.731zM269.712 221.615l-6.691 24.828-6.3-24.828h-8.886l-6.224 24.771-6.133-24.771h-9.388l11.366 38.766h8.326l6.326-24.5 6.537 24.5h8.343l11.52-38.766zM306.317 239.947c-1.63-1.079-4.431-2.313-9.109-2.987l-4.021-.984c-1.638-.396-2.856-.846-3.626-1.337-1.234-.746-1.798-1.624-1.798-2.777 0-1.065.409-1.866 1.287-2.521.965-.72 2.492-1.083 4.54-1.083 3.082 0 5.236.669 6.405 1.989.453.592.77 1.251.966 1.962l8.117-1.366c-.34-1.735-1.064-3.396-2.228-4.943-2.644-3.512-6.954-5.292-12.812-5.292-4.465 0-8.096 1.17-10.79 3.48-2.749 2.354-4.143 5.468-4.143 9.259 0 3.347.533 6.02 3.422 8.235 1.508 1.156 4.335 2.409 7.994 2.793l5.18.792c3.093.782 4.392 1.306 4.935 1.608.968.573 1.431 1.365 1.431 2.479 0 1.61-.627 2.716-1.97 3.478-1.53.867-3.339 1.305-5.376 1.305-3.404 0-6.225-.399-7.756-1.894a7.478 7.478 0 0 1-1.69-2.515l-8.594 1.446c.812 2.688 2.334 5.015 4.571 6.928 2.879 2.459 7.423 3.685 13.161 3.685 5.32 0 9.374-1.299 12.052-3.863 2.692-2.578 4.057-5.689 4.057-9.25-.001-3.759-1.479-6.836-4.205-8.627z"/><path d="M29.044 203.063v-19.25h3.594l4.286 13.618c.395 1.269.683 2.218.865 2.853.206-.708.533-1.737.974-3.087l4.385-13.383h3.183v19.25h-2.303v-16.117l-5.29 16.117h-2.161l-5.231-16.399v16.399h-2.302zM52.126 186.495v-2.682H49.9v2.682h2.226zm0 16.568V189.12H49.9v13.943h2.226zM64.102 197.955l2.176.31c-.238 1.598-.848 2.85-1.83 3.752-.983.905-2.192 1.356-3.624 1.356-1.794 0-3.235-.624-4.324-1.866-1.09-1.246-1.637-3.029-1.637-5.354 0-1.506.233-2.825.704-3.955.47-1.129 1.183-1.976 2.143-2.542a6.063 6.063 0 0 1 3.129-.846c1.425 0 2.59.382 3.495 1.146.906.769 1.487 1.852 1.742 3.255l-2.152.367c-.205-.934-.571-1.641-1.094-2.113-.526-.472-1.158-.71-1.899-.71-1.125 0-2.035.429-2.738 1.281-.701.854-1.053 2.201-1.053 4.046 0 1.875.34 3.232 1.013 4.076.677.845 1.559 1.267 2.646 1.267.875 0 1.604-.282 2.19-.847.587-.564.955-1.439 1.113-2.623zM68.151 203.063V189.12h2v2.13c.511-.993.983-1.648 1.416-1.965a2.366 2.366 0 0 1 1.432-.475c.749 0 1.514.255 2.289.766l-.772 2.193c-.543-.335-1.085-.505-1.628-.505-.486 0-.924.154-1.312.462-.387.307-.663.738-.826 1.287a9.827 9.827 0 0 0-.37 2.759v7.291h-2.229zM79.149 192.087c.736-.885 1.661-1.331 2.777-1.331 1.098 0 2.017.447 2.756 1.338.74.892 1.11 2.197 1.11 3.915 0 1.83-.369 3.189-1.103 4.08-.736.894-1.657 1.338-2.763 1.338-1.116 0-2.041-.442-2.777-1.33-.735-.886-1.101-2.222-1.101-4.004 0-1.784.367-3.118 1.101-4.006zm-1.681 9.413c1.136 1.25 2.621 1.874 4.458 1.874a6.18 6.18 0 0 0 3.17-.847 5.532 5.532 0 0 0 2.212-2.39c.506-1.029.761-2.44.761-4.231 0-2.214-.574-3.949-1.719-5.209-1.146-1.257-2.62-1.887-4.425-1.887-1.625 0-3 .517-4.13 1.558-1.352 1.24-2.026 3.15-2.026 5.73.001 2.352.567 4.154 1.699 5.402zM89.34 198.915l2.201-.368c.123.931.469 1.646 1.034 2.138.567.494 1.358.741 2.373.741 1.022 0 1.782-.221 2.278-.66.496-.44.745-.955.745-1.542 0-.54-.223-.963-.667-1.265-.31-.209-1.07-.477-2.278-.798-1.627-.44-2.755-.819-3.386-1.137-.627-.318-1.106-.759-1.432-1.323a3.651 3.651 0 0 1-.488-1.866c0-.625.132-1.204.402-1.731a3.741 3.741 0 0 1 1.091-1.316c.345-.276.817-.507 1.414-.696a6.35 6.35 0 0 1 1.921-.282c1.027 0 1.929.157 2.706.475.779.317 1.354.746 1.725 1.284.37.542.623 1.26.765 2.164l-2.176.31c-.099-.716-.384-1.276-.858-1.679-.473-.406-1.141-.608-2.004-.608-1.018 0-1.745.181-2.181.537-.436.358-.651.78-.651 1.265 0 .304.088.579.269.826.181.249.464.458.852.633.222.083.875.278 1.96.592 1.568.45 2.665.816 3.288 1.103a3.387 3.387 0 0 1 1.471 1.24c.357.543.537 1.213.537 2.012 0 .79-.217 1.535-.652 2.233-.432.699-1.055 1.235-1.872 1.613-.816.376-1.74.565-2.771.565-1.707 0-3.008-.375-3.903-1.122-.896-.749-1.467-1.861-1.713-3.338zM104.974 192.087c.733-.885 1.658-1.331 2.774-1.331 1.1 0 2.017.447 2.757 1.338.741.892 1.109 2.197 1.109 3.915 0 1.83-.368 3.189-1.103 4.08-.735.894-1.657 1.338-2.763 1.338-1.116 0-2.041-.442-2.774-1.33-.736-.886-1.106-2.222-1.106-4.004 0-1.784.37-3.118 1.106-4.006zm-1.683 9.413c1.134 1.25 2.618 1.874 4.457 1.874a6.172 6.172 0 0 0 3.17-.847 5.53 5.53 0 0 0 2.214-2.39c.506-1.029.759-2.44.759-4.231 0-2.214-.571-3.949-1.717-5.209-1.146-1.257-2.622-1.887-4.426-1.887-1.624 0-3 .517-4.128 1.558-1.352 1.24-2.028 3.15-2.028 5.73-.001 2.352.565 4.154 1.699 5.402zM116.125 203.063v-12.109h-1.975v-1.834h1.975v-1.473c0-.938.079-1.635.234-2.093a3 3 0 0 1 1.126-1.48c.537-.381 1.291-.571 2.263-.571.628 0 1.319.077 2.076.236l-.333 2.062a7.395 7.395 0 0 0-1.311-.125c-.675 0-1.153.154-1.433.459-.28.307-.42.876-.42 1.708v1.276h2.557v1.834h-2.532v12.109h-2.227zM129.275 200.969l.303 2.096a7.909 7.909 0 0 1-1.675.206c-.806 0-1.431-.135-1.875-.408-.443-.272-.756-.629-.938-1.071-.181-.441-.272-1.375-.272-2.803v-8.024h-1.644v-1.834h1.644v-1.718h2.229v1.718h2.228v1.834h-2.228v8.169c0 .671.041 1.106.116 1.298.079.193.208.347.382.464.178.115.43.173.759.173.244.001.57-.034.971-.1zM131.881 189.131h2.228v1.834h-2.228zM308.568 220.635h2.229v1.834h-2.229z" fill="#fff"/><g fill="#fff"><path d="M299.137 196.654v-6.989h-3.632v-.935h8.738v.935h-3.647v6.989h-1.459zM305.694 196.654v-7.924h2.195l2.609 5.61c.241.522.417.914.526 1.173.126-.288.321-.711.587-1.27l2.64-5.513h1.963v7.924h-1.406v-6.632l-3.204 6.632h-1.315l-3.188-6.746v6.746h-1.407z"/></g><path d="M327.583 215.4l.952-1.386.555-.809 3.057-4.454h-8.814l2.89 4.448c.547.853.986 1.567 1.36 2.201zM352.824 212.26c-1.605 0-3.058.796-4.314 2.369-1.278 1.599-1.928 3.979-1.928 7.076 0 3.093.604 5.396 1.796 6.847 1.188 1.447 2.582 2.15 4.259 2.15 1.708 0 3.13-.729 4.352-2.231 1.225-1.505 1.845-3.9 1.845-7.12 0-3.063-.608-5.376-1.812-6.874-1.199-1.492-2.571-2.217-4.198-2.217z" fill="none"/><path d="M330.705 219.518l7.388-10.767h-5.946l-3.057 4.454-.555.809-.952 1.386a67.593 67.593 0 0 0-1.361-2.201l-2.89-4.448H317.4l7.356 10.77-8.691 14.274-.423.618H321.589l.117-.173 6.151-10.661.825 1.335 5.02 9.32.115.179h5.927l-.42-.617-8.619-14.278zM362.617 214.707c-.829-2.054-2.082-3.668-3.723-4.799-1.644-1.135-3.558-1.71-5.687-1.71-1.636 0-3.056.335-4.22.993-.863.489-1.669 1.166-2.406 2.021v-2.459h-4.516V243.932h4.868v-11.527c.608.615 1.288 1.179 2.099 1.624 1.141.624 2.437.941 3.855.941 1.942 0 3.815-.57 5.566-1.69 1.754-1.121 3.109-2.753 4.029-4.854.907-2.075 1.368-4.44 1.368-7.028.003-2.411-.412-4.662-1.233-6.691zm-5.629 13.765c-1.222 1.501-2.644 2.231-4.352 2.231-1.677 0-3.071-.703-4.259-2.15-1.191-1.451-1.796-3.754-1.796-6.847 0-3.097.649-5.477 1.928-7.076 1.257-1.573 2.709-2.369 4.314-2.369 1.627 0 2.999.725 4.197 2.218 1.203 1.498 1.812 3.811 1.812 6.874.001 3.219-.619 5.614-1.844 7.119z" fill="#cf4032"/></g></svg>